<svg xmlns="http://www.w3.org/2000/svg" viewBox="0 0 100 100">
  <circle fill="#202124" cx="50" cy="50" r="50" />
  <path fill="#bdc1c6" d="M3.9 30.5C16.4 30.9 30.6 34.9 42.7 40.9 57.6 34.2 85.3 34.5 98.8 39.2 99 40.1 99.2 41 99.3 41.9 87.5 37 60.5 36.4 45.3 42.2 53.9 46.8 61.4 52.4 66.4 58.5 77.1 55.5 88.2 54 99.8 53.9 99.8 54.6 99.7 55.4 99.6 56.1 69.8 56.4 44 66.3 17.1 87.6 16.5 87.1 15.9 86.6 15.4 86 31.6 73.2 47.6 64.3 64 59.2 51.6 44.8 24.7 33.2 3.1 32.7 3.3 32 3.6 31.3 3.9 30.5Z" />
</svg>
