<svg xmlns="http://www.w3.org/2000/svg" viewBox="0 0 100 100" isolation="isolate">
  <circle fill="#bdc1c6" cx="50" cy="50" r="50" />
  <path fill="#202124" d="M32.8 69C33.9 68 33.9 66.7 33.9 66.7 33.9 66.7 33.9 66.6 34 66.6 33.9 66.7 31.6 67 32.2 66.8 32.9 66.6 33.8 64.6 33.8 64.6 33.6 64.9 32.2 64.7 32.7 64.5 33.3 64.3 33.6 62.5 33.6 62.5 33.6 62.9 32.7 62.9 32.7 62.9 33.1 62.5 33.6 61.5 34.1 59.3 34.1 59.3 35 62.2 35.8 62.2 35.8 62.2 35 62.5 34.7 62.3 34.7 62.3 35.7 64.3 36.4 64.3 36.4 64.3 35.5 64.5 35.1 64.3 35.1 64.3 36.2 66.4 37.1 66.3 37.1 66.3 36.5 66.6 35.8 66.4 35.7 66.4 35.7 66.4 35.7 66.4 35.8 66.6 36.2 67.8 37.1 68.5 37.7 68.5 38.2 68.5 38.7 68.5 38.9 68 39 67.5 39 67.5 38.9 67.9 38.1 67.8 38.1 67.8 38.5 67.5 39 66.8 39.4 65.1 39.4 65.1 40.3 67.3 41.1 67.3 41.1 67.3 40.3 67.5 40.1 67.4 40.1 67.4 40.5 68 41 68.5 41.4 68.5 41.8 68.6 42.1 68.7 44.5 67.9 44.3 65.7 44.2 65.9 44.2 66.1 41.4 66.1 42.4 66 43.3 65.8 44.7 63.9 44.7 63.9 44.3 64.3 42.4 63.9 43.2 63.7 44 63.5 44.7 61.8 44.7 61.8 44.6 62.2 43.3 62 43.3 62 44 61.8 44.7 60.8 45.4 58.6 45.4 58.6 46.5 61.5 47.7 61.6 47.7 61.6 46.5 61.9 46.2 61.6 46.2 61.6 47.5 63.8 48.5 63.9 48.5 63.9 47.2 64 46.6 63.8 46.6 63.8 48.1 66.1 49.3 66 49.3 66 48.5 66.2 47.5 65.9 47.4 65.9 47.4 65.9 47.3 65.8 47.4 66 47.9 67.3 49.2 68.1 49.8 68 51 66.7 51 66.7 50.7 67 49.3 66.5 49.9 66.4 50.5 66.3 51.1 65.1 51.1 65.1 51 65.4 50.1 65.2 50.1 65.2 50.6 65 51.2 64.3 51.8 62.7 51.8 62.7 52.3 65 53.1 65.2 53.1 65.2 52.3 65.2 52.1 65.1 52.1 65.1 52.7 66.8 53.5 67 53.5 67 52.5 67 52.2 66.7 52.2 66.7 52.9 68.2 53.7 68.5 55.6 68.9 58.3 69.4 60.6 69.6 61.1 69.1 61.6 68.5 61.6 68.5 61.3 68.6 60.3 68.5 60.3 68.5 61 68.4 61.9 66.8 61.9 66.8 61.7 67 60.9 66.7 60.9 66.7 61.7 66.7 62.5 64.4 62.5 64.4 62.9 66.2 63.4 66.9 63.9 67.1 63.9 67.1 63.1 67.2 63 66.9 63 66.9 63.4 68.2 64 68.4 64.5 68.5 63.2 68.8 62.9 68.5 62.9 68.5 63.2 68.9 63.5 69.4 65 68.5 65.6 66.9 65.7 66.7 65.6 66.7 65.6 66.7 65.5 66.8 64.6 67.1 63.9 66.7 63.9 66.7 65 66.9 66.4 64.7 66.4 64.7 65.9 64.8 64.7 64.7 64.7 64.7 65.6 64.6 66.9 62.5 66.9 62.5 66.5 62.6 65.5 62.3 65.5 62.3 66.5 62.3 67.7 59.2 67.7 59.2 68.2 61.6 68.7 62.7 69.3 63 69.3 63 68.2 63.2 68.2 62.7 68.2 62.7 68.7 64.5 69.3 64.8 70 65 68.2 65.2 67.9 64.9 67.9 64.9 69 67.1 69.8 67.3 70.6 67.5 67.8 67.2 67.7 67.1 67.7 67.1 67.8 67.2 67.8 67.2 67.8 67.2 67.8 69.6 70.6 70.4 71.7 70.6 87.1 70.9 87.1 70.9L79.4 45.8 74.1 52.4 62.6 20.6 54.4 37.7 46.8 30 36.6 46.1 29.4 37.5 23.9 54.1 19.7 53.1 12.9 71C13 70.9 29.9 69.5 32.8 69ZM20.7 55.6L24.5 56.6 29.8 40.8 37.2 48.4 47.2 32.5 54.9 40 62.7 24.9 73.7 55.9 78.9 49.5 83.1 63.1 79.4 57.4 77.9 60.6 76.6 57.8C76.6 57.8 73.3 62.6 73.3 62.1 73.3 61.6 63.1 37.4 62.9 37.8 62.8 38.1 60.9 41.8 60.9 41.8L59.2 38.8 53.5 44.9C53.5 44.9 49.2 39.4 49.2 39.8 49.2 40.1 47.7 44.5 47.7 44.5L45.9 41.1 36.6 52.1 31.9 45.2 30.1 50 29.1 49.4 25.9 62 22.1 58.5 18.6 63.2 20.7 55.6Z" />
</svg>
