<svg xmlns="http://www.w3.org/2000/svg" viewBox="0 0 100 100">
  <circle fill="#e5e5e5" cx="50" cy="50" r="50" />
  <path fill="#202124" d="M99.3 41.8C87.5 36.9 60.6 36.4 45.3 42.2 53.9 46.8 61.4 52.4 66.4 58.5 77.1 55.5 88.1 54 99.8 53.9 99.9 52.6 100 51.3 100 50 100 47.2 99.8 44.4 99.3 41.8ZM98.8 39.1C93.8 16.8 73.8 0 50 0 29.3 0 11.5 12.6 3.9 30.6 16.5 30.9 30.5 34.8 42.7 40.9 57.7 34.2 85.3 34.4 98.8 39.1ZM3 32.8C1.1 38.2 0 44 0 50 0 64.1 5.9 76.9 15.4 86 31.7 73 47.5 64.3 64 59.2 51.5 44.7 24.7 33.1 3 32.8ZM50 100C75.5 100 96.6 80.8 99.6 56.1 69.7 56.4 44.1 66.1 17.1 87.6 25.9 95.3 37.4 100 50 100Z" />
</svg>
